<svg width="32" height="24" viewBox="0 0 32 24" fill="none" xmlns="http://www.w3.org/2000/svg">
<g clip-path="url(#clip0_1186_3741)">
<path d="M25.2905 23.0799C22.6772 23.0799 20.7839 22.1465 19.6105 20.2799C19.0772 19.4799 18.6505 18.4932 18.3305 17.3199C18.0105 16.1465 17.8505 14.9199 17.8505 13.6399C17.8505 10.8665 18.5439 8.35985 19.9305 6.11985C21.3705 3.87985 23.4772 2.11985 26.2505 0.839844L26.9705 2.27984C25.4239 2.91985 24.0639 3.90652 22.8905 5.23985C21.7705 6.57318 21.1039 7.93318 20.8905 9.31985C20.7305 9.95985 20.6505 10.5732 20.6505 11.1599C20.6505 11.6932 20.7305 12.1999 20.8905 12.6799C22.0639 11.3999 23.6105 10.7599 25.5305 10.7599C27.3972 10.7599 28.9172 11.3199 30.0905 12.4399C31.2639 13.5065 31.8505 14.9999 31.8505 16.9199C31.8505 18.7332 31.2372 20.2265 30.0105 21.3999C28.7839 22.5199 27.2105 23.0799 25.2905 23.0799ZM8.81048 23.0799C6.19715 23.0799 4.30381 22.1465 3.13048 20.2799C2.59715 19.4799 2.17048 18.4932 1.85048 17.3199C1.53048 16.1465 1.37048 14.9199 1.37048 13.6399C1.37048 10.8665 2.06381 8.35985 3.45048 6.11985C4.89048 3.87985 6.99715 2.11985 9.77048 0.839844L10.4905 2.27984C8.94381 2.91985 7.58381 3.90652 6.41048 5.23985C5.29048 6.57318 4.62381 7.93318 4.41048 9.31985C4.25048 9.95985 4.17048 10.5732 4.17048 11.1599C4.17048 11.6932 4.25048 12.1999 4.41048 12.6799C5.58381 11.3999 7.13048 10.7599 9.05048 10.7599C10.9172 10.7599 12.4372 11.3199 13.6105 12.4399C14.7839 13.5065 15.3705 14.9999 15.3705 16.9199C15.3705 18.7332 14.7572 20.2265 13.5305 21.3999C12.3039 22.5199 10.7305 23.0799 8.81048 23.0799Z" fill="#DBC207"/>
</g>
<defs>
<clipPath id="clip0_1186_3741">
<rect width="31" height="24" fill="white" transform="translate(0.850952)"/>
</clipPath>
</defs>
</svg>
