<svg width="32" height="24" viewBox="0 0 32 24" fill="none" xmlns="http://www.w3.org/2000/svg">
<g clip-path="url(#clip0_1186_3743)">
<path d="M7.41144 0.920122C10.0247 0.920122 11.918 1.85352 13.0914 3.72012C13.6247 4.52012 14.0514 5.50682 14.3714 6.68012C14.6914 7.85352 14.8514 9.08012 14.8514 10.3601C14.8514 13.1335 14.158 15.6402 12.7714 17.8802C11.3314 20.1202 9.22474 21.8802 6.45144 23.1602L5.73144 21.7202C7.27804 21.0802 8.63804 20.0935 9.81144 18.7602C10.9314 17.4268 11.598 16.0668 11.8114 14.6802C11.9714 14.0402 12.0514 13.4268 12.0514 12.8401C12.0514 12.3068 11.9714 11.8001 11.8114 11.3201C10.638 12.6001 9.09144 13.2401 7.17144 13.2401C5.30474 13.2401 3.78474 12.6801 2.61144 11.5601C1.43804 10.4935 0.85144 9.00012 0.85144 7.08012C0.85144 5.26682 1.46474 3.77352 2.69144 2.60012C3.91804 1.48012 5.49144 0.920122 7.41144 0.920122ZM23.8914 0.920122C26.5048 0.920122 28.3981 1.85352 29.5714 3.72012C30.1048 4.52012 30.5314 5.50682 30.8514 6.68012C31.1714 7.85352 31.3314 9.08012 31.3314 10.3601C31.3314 13.1335 30.6381 15.6402 29.2514 17.8802C27.8114 20.1202 25.7048 21.8802 22.9314 23.1602L22.2114 21.7202C23.7581 21.0802 25.1181 20.0935 26.2914 18.7602C27.4114 17.4268 28.0781 16.0668 28.2914 14.6802C28.4514 14.0402 28.5314 13.4268 28.5314 12.8401C28.5314 12.3068 28.4514 11.8001 28.2914 11.3201C27.1181 12.6001 25.5714 13.2401 23.6514 13.2401C21.7847 13.2401 20.2647 12.6801 19.0914 11.5601C17.918 10.4935 17.3314 9.00012 17.3314 7.08012C17.3314 5.26682 17.9447 3.77352 19.1714 2.60012C20.398 1.48012 21.9714 0.920122 23.8914 0.920122Z" fill="#DBC207"/>
</g>
<defs>
<clipPath id="clip0_1186_3743">
<rect width="31" height="24" fill="white" transform="translate(31.851 24) rotate(-180)"/>
</clipPath>
</defs>
</svg>
