<svg width="1165" height="628" viewBox="0 0 1165 628" fill="none" xmlns="http://www.w3.org/2000/svg">
<path opacity="0.5" d="M1068.44 332.136C1060.05 317.152 1055.84 301.513 1055.23 285.625C1053.57 241.254 1014.1 198.185 949.347 174.06C869.652 144.374 756.231 145.092 673.017 175.822C632.822 190.666 595.6 212.561 548.462 213.866C462.579 216.247 420.086 150.736 335.829 143.464C272.518 137.998 213.966 167.951 178.996 199.323C113.741 257.869 91.5131 331.814 130.101 395.019C168.681 458.222 271.047 507.87 390.266 514.495C417.758 516.018 446.29 515.317 472.756 509.921C517.003 500.899 551 479.871 593.556 468.367C661.448 450.013 739.337 458.283 812.312 463.637C885.294 468.991 969.153 469.078 1024.13 439.782C1057.4 422.047 1073.76 396.025 1075.91 370.773C1077.12 356.556 1074.25 342.498 1068.44 332.136Z" fill="#5C5208" fill-opacity="0.33"/>
</svg>
