<?xml version="1.0" standalone="no"?>
<!DOCTYPE svg PUBLIC "-//W3C//DTD SVG 20010904//EN"
 "http://www.w3.org/TR/2001/REC-SVG-20010904/DTD/svg10.dtd">
<svg version="1.0" xmlns="http://www.w3.org/2000/svg"
 width="1080.000000pt" height="1080.000000pt" viewBox="0 0 1080.000000 1080.000000"
 preserveAspectRatio="xMidYMid meet">
<metadata>
Created by potrace 1.14, written by Peter Selinger 2001-2017
</metadata>
<g transform="translate(0.000000,1080.000000) scale(0.100000,-0.100000)"
fill="#000000" stroke="none">
<path d="M5147 10594 c-1 -1 -63 -5 -137 -9 -74 -4 -137 -8 -140 -10 -3 -1
-43 -6 -90 -10 -47 -4 -96 -8 -110 -10 -475 -72 -825 -164 -1220 -320 -331
-131 -722 -340 -1006 -539 -44 -30 -94 -65 -112 -78 -18 -13 -39 -28 -45 -33
-7 -6 -30 -24 -52 -40 -22 -17 -42 -32 -45 -35 -3 -3 -28 -23 -56 -45 -222
-175 -504 -451 -705 -690 -611 -728 -1005 -1587 -1153 -2516 -14 -85 -28 -183
-31 -219 -4 -36 -9 -76 -11 -89 -19 -128 -26 -743 -11 -931 114 -1340 720
-2571 1693 -3439 205 -183 297 -256 484 -388 687 -484 1490 -795 2305 -892 50
-6 108 -13 130 -16 217 -26 810 -26 1010 0 17 2 73 9 125 15 522 61 1089 229
1585 469 162 79 412 214 425 230 3 3 21 15 40 25 83 45 494 335 520 366 3 3
32 28 65 56 680 560 1239 1353 1544 2191 95 261 176 552 224 813 25 130 31
168 42 255 3 22 8 51 10 65 2 14 7 57 11 95 3 39 8 81 10 95 22 181 22 814 0
937 -2 10 -6 50 -10 88 -32 339 -121 744 -240 1100 -259 770 -660 1416 -1236
1996 -113 113 -229 226 -259 250 -29 24 -59 49 -65 55 -83 78 -363 286 -541
401 -599 387 -1322 658 -2020 757 -106 15 -285 34 -395 42 -88 6 -527 13 -533
8z"/>
</g>
</svg>
